Coordinates
version=1
nRows=17
nColumns=24
inDegrees=yes

Units are S.I. units (second, meters, Newtons, ...)
Angles are in degrees.

endheader
time	pelvis_tilt	pelvis_list	pelvis_rotation	pelvis_tx	pelvis_ty	pelvis_tz	hip_flexion_r	hip_adduction_r	hip_rotation_r	knee_angle_r	ankle_angle_r	subtalar_angle_r	mtp_angle_r	hip_flexion_l	hip_adduction_l	hip_rotation_l	knee_angle_l	ankle_angle_l	subtalar_angle_l	mtp_angle_l	lumbar_extension	lumbar_bending	lumbar_rotation
      5.17000000	    -10.23408389	      1.24505969	     -3.53265520	     -1.21777387	     -0.02574943	     -0.28008362	     -3.87050164	      1.87067636	      9.06459524	    -15.57766717	      8.64900544	      3.14723602	     17.57352602	     33.82049479	     -0.80085892	      2.02294428	     -8.95523367	     -0.47081697	      0.60498082	      7.57010922	      7.07328963	     -1.34251226	     13.42192829
      5.17500000	    -10.28192963	      1.27889701	     -3.60474542	     -1.21141991	     -0.02654562	     -0.28077910	     -4.01002753	      1.73935338	      8.94324727	    -15.98346879	      8.38378327	      3.48027406	     17.69112029	     33.78566765	     -0.74792741	      1.90619939	     -9.55148733	     -0.60663567	      0.44528453	      7.54245659	      7.28219114	     -1.36473853	     13.41081121
      5.18000000	    -10.40363272	      1.38464371	     -3.66130113	     -1.20493354	     -0.02741148	     -0.28164688	     -4.05113174	      1.49160477	      8.66653024	    -16.41687853	      8.27111833	      4.21775634	     18.10155514	     33.81986123	     -0.60991848	      1.81161842	    -10.13538754	     -0.85324005	      0.23469875	      7.52957960	      7.60138693	     -1.43491112	     13.51373065
      5.18500000	    -10.49304169	      1.48296153	     -3.67745239	     -1.19846281	     -0.02819703	     -0.28251864	     -4.12133217	      1.26040916	      8.36940644	    -16.85361005	      8.02199207	      4.80595362	     18.46599535	     33.82498914	     -0.45663315	      1.72482487	    -10.70112560	     -1.17871604	      0.03061032	      7.54467435	      7.87703755	     -1.51851034	     13.51146391
      5.19000000	    -10.57608137	      1.58586722	     -3.69962026	     -1.19205850	     -0.02890438	     -0.28345177	     -4.16655465	      1.01064910	      8.06526982	    -17.32515501	      7.71959431	      5.48183027	     18.97336749	     33.82108722	     -0.29551357	      1.66018411	    -11.22747601	     -1.60669724	     -0.20980424	      7.63345490	      8.13514731	     -1.59622710	     13.48705364
      5.19500000	    -10.67476753	      1.75947632	     -3.70798840	     -1.18563141	     -0.02953358	     -0.28435309	     -4.17397170	      0.68776295	      7.73641106	    -17.82076332	      7.37371987	      6.11865109	     19.44301324	     33.83586802	     -0.06458336	      1.55749027	    -11.72547215	     -2.11519645	     -0.39323144	      7.74807363	      8.41675096	     -1.76565859	     13.48062113
      5.20000000	    -10.77431270	      1.96506161	     -3.66741546	     -1.17923425	     -0.03008212	     -0.28535438	     -4.15918352	      0.32266582	      7.34650282	    -18.34347237	      6.99137889	      6.80411634	     19.95094844	     33.86822965	      0.23353757	      1.49193074	    -12.21325464	     -2.68144894	     -0.56482539	      7.90719679	      8.69375095	     -1.96940050	     13.45847933
      5.20500000	    -10.87234522	      2.20804215	     -3.61653080	     -1.17289108	     -0.03051452	     -0.28633485	     -4.11583570	     -0.08918830	      6.89085064	    -18.88916582	      6.54196777	      7.52945625	     20.54091136	     33.90948320	      0.57731599	      1.49390482	    -12.69745306	     -3.31269309	     -0.72861781	      8.11461784	      8.95999110	     -2.23039500	     13.41537149
      5.21000000	    -10.97225002	      2.49884632	     -3.53283844	     -1.16655524	     -0.03084174	     -0.28734602	     -4.04127670	     -0.55466363	      6.41229738	    -19.47886913	      6.03533436	      8.27043716	     21.13432999	     33.95646279	      0.99358306	      1.55482104	    -13.17708846	     -3.94113396	     -0.83249579	      8.30796541	      9.23033041	     -2.54862072	     13.35358950
      5.21500000	    -11.04969557	      2.82130162	     -3.38502732	     -1.16022501	     -0.03103745	     -0.28842603	     -3.98897273	     -1.05527438	      5.91047968	    -20.03726490	      5.26201148	      8.86524551	     22.21489342	     33.96888048	      1.49818456	      1.82330144	    -13.62543649	     -4.70279400	     -1.08653918	      8.64191552	      9.47207774	     -2.91858554	     13.22345593
      5.22000000	    -11.15066831	      3.17357255	     -3.29208464	     -1.15393568	     -0.03117376	     -0.28937599	     -3.83255313	     -1.59607679	      5.36997542	    -20.75482461	      4.72893218	      9.75599064	     22.60384628	     34.04413438	      1.98712430	      1.92148557	    -14.17812168	     -5.16473649	     -0.92233121	      8.68256639	      9.73906959	     -3.31660494	     13.15876712
      5.22500000	    -11.23994527	      3.53644441	     -3.12751770	     -1.14762849	     -0.03121988	     -0.29041799	     -3.67544301	     -2.16184774	      4.70520514	    -21.48590847	      4.07186038	     10.67468299	     23.13719244	     34.09684836	      2.55617277	      2.27544137	    -14.72633832	     -5.68847890	     -0.94440829	      8.64800378	      9.99009108	     -3.74143160	     13.03442538
      5.23000000	    -11.30710614	      3.89590110	     -2.92505135	     -1.14134913	     -0.03117843	     -0.29150400	     -3.52317128	     -2.73680997	      3.97890549	    -22.23190938	      3.28767067	     11.60477441	     23.84908206	     34.12833994	      3.16387050	      2.77084600	    -15.29627738	     -6.19731696	     -1.01769393	      8.50728352	     10.20484334	     -4.17147705	     12.95132298
      5.23500000	    -11.35743944	      4.26141263	     -2.73049622	     -1.13504004	     -0.03106198	     -0.29253154	     -3.35012015	     -3.32676893	      3.22996605	    -23.03119508	      2.36867788	     12.51328505	     24.64229148	     34.12001552	      3.78302204	      3.32733964	    -15.85511381	     -6.60019712	     -1.07568527	      8.25078784	     10.40327621	     -4.61731410	     12.82451040
      5.24000000	    -11.38549622	      4.64903286	     -2.51984676	     -1.12860121	     -0.03082969	     -0.29358061	     -3.21147806	     -3.94552364	      2.52287795	    -23.77464732	      1.09985444	     13.24062786	     25.95690274	     34.04449439	      4.45906846	      3.98424547	    -16.37929100	     -6.91489306	     -1.29045490	      7.56054733	     10.60141280	     -5.09004087	     12.67015644
      5.24500000	    -11.42144544	      4.98162628	     -2.31099289	     -1.12224231	     -0.03065273	     -0.29443629	     -2.98850558	     -4.50357034	      1.73466440	    -24.70849046	      0.11566934	     14.17240827	     26.23951032	     34.01916621	      5.02926151	      4.38787889	    -16.96156292	     -7.07494224	     -1.03050658	      7.46256901	     10.78708511	     -5.53145413	     12.51768968
      5.25000000	    -11.44310014	      5.26374166	     -2.09875782	     -1.11583048	     -0.03039606	     -0.29558306	     -2.76932706	     -5.06428040	      0.89907436	    -25.60978235	     -1.15956514	     15.24362977	     27.15186489	     33.89203617	      5.63705590	      5.25861576	    -17.45043940	     -7.25125412	     -1.43993750	      6.78944134	     10.96326212	     -5.86992347	     12.42700798
